<svg width="226" height="64" viewBox="0 0 226 64" fill="none" xmlns="http://www.w3.org/2000/svg">
<g clip-path="url(#clip0_0_211)">
<path d="M71.8594 25.448L75.2827 23.9116C76.0234 26.2556 77.9987 28.0416 80.8948 28.0416C83.3105 28.0416 85.3925 26.8006 85.3925 24.2005C85.3925 21.9353 83.8711 20.9438 81.0083 19.8079L79.2999 19.1513C75.543 17.6871 72.867 15.6779 72.867 11.9813C72.867 7.77258 76.3971 5.13965 80.748 5.13965C85.0989 5.13965 87.8883 7.81198 89.0027 10.5894L85.8396 12.2702C84.7586 10.0772 83.1637 8.86909 80.8948 8.86909C78.626 8.86909 77.0311 10.005 77.0311 12.0142C77.0311 13.59 77.9987 14.7916 80.9749 15.9669L82.7566 16.6628C87.2544 18.4159 89.7435 20.4317 89.7435 24.2333C89.7435 29.2825 85.3592 31.8432 80.9349 31.8432C76.5106 31.8432 72.7936 29.2103 71.866 25.4415L71.8594 25.448Z" fill="#0067B1"/>
<path d="M92.8973 21.9676V5.50684H97.0947V21.9676C97.0947 26.3208 99.7706 27.9295 102.6 27.9295C105.429 27.9295 108.139 26.3208 108.139 21.9676V5.50684H112.336V21.9676C112.336 28.3694 108.059 31.8427 102.593 31.8427C97.1281 31.8427 92.8906 28.3694 92.8906 21.9676H92.8973Z" fill="#0067B1"/>
<path d="M116.438 5.50684H125.433C131.118 5.50684 134.689 9.0196 134.689 14.1739C134.689 19.3281 131.118 22.808 125.433 22.808H120.635V31.475H116.438V5.50684ZM125.026 18.967C128.262 18.967 130.418 17.5028 130.418 14.1739C130.418 10.8449 128.262 9.3479 125.026 9.3479H120.642V18.967H125.026Z" fill="#0067B1"/>
<path d="M146.998 22.5914H142.24V31.4816H138.043V5.50684H146.965C152.544 5.50684 156.107 9.0196 156.107 14.1739C156.107 17.9427 154.172 20.7201 150.942 21.9282L157.262 31.475H152.764L147.005 22.5848L146.998 22.5914ZM146.478 18.967C149.714 18.967 151.83 17.5028 151.83 14.1739C151.83 10.8449 149.708 9.3479 146.478 9.3479H142.24V18.967H146.478Z" fill="#0067B1"/>
<path d="M160.566 5.50684H175.141V9.3479H164.771V16.5573H173.546V20.2867H164.771V27.6406H175.474V31.4816H160.566V5.50684Z" fill="#0067B1"/>
<path d="M178.969 5.50684H183.613L192.982 26.1764L202.385 5.50684H207.029V31.475H202.832V13.5501H202.645L194.544 31.475H191.421L183.353 13.5501H183.166V31.475H178.969V5.50684Z" fill="#0067B1"/>
<path d="M211.094 5.50684H225.668V9.3479H215.298V16.5573H224.073V20.2867H215.298V27.6406H226.002V31.4816H211.094V5.50684Z" fill="#0067B1"/>
<path d="M72.0977 47.5429C72.0977 41.0557 77.0959 36.7354 83.0817 36.7354C85.8177 36.7354 89.3144 37.6546 91.5699 41.0886L89.1009 42.8088C87.5394 40.6749 85.2771 39.933 83.1417 39.933C78.931 39.933 75.5877 42.8679 75.5877 47.5429C75.5877 52.2178 78.931 55.2447 83.1417 55.2447C86.1847 55.2447 88.9207 53.6754 89.5213 49.8541H83.9559V47.0373H92.8378C93.5919 54.1482 88.7739 58.3504 82.9949 58.3504C77.216 58.3504 72.0977 54.0234 72.0977 47.5429Z" fill="#00AEEF"/>
<path d="M103.129 50.8581H99.2783V58.0543H95.875V37.0303H103.102C107.62 37.0303 110.509 39.8733 110.509 44.0492C110.509 47.1024 108.948 49.3479 106.325 50.3263L111.443 58.0543H107.8L103.135 50.8581H103.129ZM102.708 47.9231C105.324 47.9231 107.046 46.7413 107.046 44.0427C107.046 41.3441 105.331 40.136 102.708 40.136H99.2783V47.9231H102.708Z" fill="#00AEEF"/>
<path d="M112.461 47.5429C112.461 41.0886 117.486 36.7354 123.385 36.7354C129.284 36.7354 134.309 41.0886 134.309 47.5429C134.309 53.9972 129.251 58.3504 123.385 58.3504C117.519 58.3504 112.461 53.9972 112.461 47.5429ZM123.385 55.1528C127.355 55.1528 130.819 52.1587 130.819 47.5429C130.819 42.927 127.355 39.933 123.385 39.933C119.414 39.933 115.951 42.927 115.951 47.5429C115.951 52.1587 119.414 55.1528 123.385 55.1528Z" fill="#00AEEF"/>
<path d="M137.316 50.3523V37.0234H140.72V50.3523C140.72 53.8782 142.888 55.1782 145.177 55.1782C147.466 55.1782 149.662 53.8782 149.662 50.3523V37.0234H153.065V50.3523C153.065 55.5328 149.602 58.3495 145.177 58.3495C140.753 58.3495 137.323 55.5328 137.323 50.3523H137.316Z" fill="#00AEEF"/>
<path d="M156.367 37.0303H163.654C168.259 37.0303 171.148 39.8733 171.148 44.0492C171.148 48.2252 168.259 51.0354 163.654 51.0354H159.77V58.0543H156.367V37.0303ZM163.321 47.9297C165.937 47.9297 167.685 46.7478 167.685 44.0492C167.685 41.3506 165.937 40.1425 163.321 40.1425H159.77V47.9297H163.321Z" fill="#00AEEF"/>
<path d="M31.6742 63.274C23.2527 63.274 15.752 60.1027 9.31243 53.8059C2.98627 47.6208 -0.143444 39.919 -0.00330739 30.9106C0.130156 22.631 3.86713 14.4826 10.2533 8.55362C16.3126 2.92006 24.0401 -0.0083383 32.0145 0.293694C40.7297 0.0113595 48.4705 3.11704 55.0236 9.53851C61.1829 15.5792 64.346 23.4123 64.1725 32.2041C63.8255 49.781 49.6384 61.1598 36.4655 62.9391C34.8373 63.1624 33.2424 63.2674 31.6742 63.2674V63.274ZM30.8868 3.02512C24.0268 3.02512 17.4203 5.67775 12.1752 10.5562C6.3362 15.9862 2.91954 23.4189 2.79275 30.9631C2.65928 39.1968 5.5154 46.2289 11.281 51.8624C18.2678 58.691 26.6159 61.5012 36.0918 60.2274C48.1169 58.6056 61.0695 48.2183 61.3831 32.1647C61.5433 24.0229 58.7405 17.0696 53.055 11.4952C47.0625 5.61866 40.009 2.77561 32.0679 3.05138H32.0145H31.9611C31.6075 3.03825 31.2471 3.03168 30.8934 3.03168L30.8868 3.02512Z" fill="#0067B1"/>
<path d="M41.5969 10.7598C42.3644 11.0947 44.8401 12.2372 46.1747 13.0448V21.3835H44.8935C44.5932 21.3835 43.6656 17.0828 38.1536 13.3074C36.145 11.9351 33.5892 10.8977 31.2869 10.8977C28.9847 10.8977 27.2029 11.528 25.7215 12.7821C24.2467 14.0362 23.4993 15.612 23.4993 17.5096C23.4993 19.0263 24.1867 20.392 25.568 21.6133C26.9427 22.8345 29.5986 23.9901 33.5291 25.0735C39.6884 26.7938 43.8591 28.9146 46.0413 31.4359C48.2034 33.9572 49.2844 36.7674 49.2844 39.8534C49.2844 42.9394 48.4903 45.6577 46.9088 47.7982C45.3206 49.9387 43.4254 51.6261 41.2299 52.8539C39.0211 54.0818 36.1917 54.699 32.7483 54.699C30.7931 54.699 28.7711 54.4232 26.6824 53.8651C24.5937 53.3135 22.4049 52.5388 20.2028 51.3832C18.688 50.5821 16.2189 49.1705 15.625 48.7896V39.3938H17.0864C17.1532 39.6499 17.2466 39.9847 17.4067 40.3918C18.8081 43.7798 20.73 46.6688 23.2591 48.7305C25.8082 50.8119 28.938 52.2236 32.1344 52.2236C34.8437 52.2236 37.0325 51.4357 38.7008 49.8533C40.3624 48.2709 41.1966 46.485 41.1966 44.4758C41.1966 42.4666 40.4291 40.7792 38.8876 39.4004C37.3528 38.0281 34.5768 36.7083 30.5796 35.4411C26.6958 34.2002 23.8063 33.0183 21.9111 31.889C20.0159 30.7596 18.4945 29.2101 17.36 27.2403C16.2189 25.2639 15.6584 23.2613 15.6584 21.2325C15.6584 17.6934 17.0531 14.6797 19.8424 12.1978C22.6385 9.7224 26.4355 8.48145 31.2402 8.48145C33.8361 8.48145 37.4195 8.93449 41.6103 10.7467L41.5969 10.7598Z" fill="#0067B1"/>
</g>
<defs>
<clipPath id="clip0_0_211">
<rect width="226" height="63" fill="white" transform="translate(0 0.733398)"/>
</clipPath>
</defs>
</svg>
